<svg xmlns="http://www.w3.org/2000/svg" viewBox="0 0 245 240" fill="#fff"><path d="M104.4 104.8c-5.7 0-10.2 5-10.2 11.1s4.6 11.1 10.2 11.1c5.7 0 10.2-5 10.2-11.1.1-6.1-4.5-11.1-10.2-11.1zm36.2 0c-5.7 0-10.2 5-10.2 11.1s4.6 11.1 10.2 11.1c5.7 0 10.2-5 10.2-11.1s-4.5-11.1-10.2-11.1z"/><path d="M194.5 20H50.5C35.6 20 23.5 32 23.5 47v146c0 15 12.1 27 27 27h121.7l-5.7-20 13.7 12.6 13.1 11.9 23.3 20.5V47c0-15-12.1-27-27-27zM161 164s-4.3-5.1-7.8-9.6c15.6-4.4 21.6-14 21.6-14-4.9 3.2-9.6 5.5-13.8 7.1-6 2.5-11.8 4.1-17.5 5-11.6 2.2-22.2 1.6-31.4-.1-6.9-1.3-12.8-3.1-17.8-5-2.8-1.1-5.9-2.5-9-4.4-.4-.2-.8-.4-1.1-.6-.2-.1-.3-.2-.4-.3-1.8-1-2.8-1.7-2.8-1.7s5.7 9.5 20.7 13.9c-3.5 4.5-8 10.3-8 10.3-26.4-.8-36.4-18.1-36.4-18.1 0-38.3 17.1-69.5 17.1-69.5 17.1-12.8 33.3-12.5 33.3-12.5l1.2 1.4c-21.4 6.1-31.3 15.4-31.3 15.4s2.6-1.4 7-3.4c12.7-5.6 22.8-7.1 27-7.5.7-.1 1.3-.2 2-.2 7.1-.9 15.1-1.1 23.3-.2 10.9 1.2 22.6 4.3 34.6 10.6 0 0-9.4-8.9-29.7-15l1.7-1.9s16.2-.3 33.3 12.5c0 0 17.1 31.2 17.1 69.5 0 .1-10.1 17.4-36.5 18.2z"/></svg>