<svg xmlns="http://www.w3.org/2000/svg" viewBox="0 0 448 512" fill="#fff"><path d="M224.1 141c-63.6 0-114.9 51.3-114.9 114.9S160.5 370.8 224.1 370.8 339 319.5 339 255.9 287.7 141 224.1 141zm0 186.6c-39.5 0-71.7-32.2-71.7-71.7 0-39.5 32.2-71.7 71.7-71.7 39.5 0 71.7 32.2 71.7 71.7 0 39.5-32.2 71.7-71.7 71.7zm146.4-194.3c0 14.9-12 26.9-26.9 26.9-14.9 0-26.9-12-26.9-26.9s12-26.9 26.9-26.9c14.9 0 26.9 12 26.9 26.9zm76.1 27.2c-1.7-35.7-9.9-67.3-36.2-93.6S368.1 24.3 332.4 22.6c-35.6-1.7-141.6-1.7-177.2 0-35.7 1.7-67.3 9.9-93.6 36.2S24.3 143.9 22.6 179.6c-1.7 35.6-1.7 141.6 0 177.2 1.7 35.7 9.9 67.3 36.2 93.6s57.9 34.5 93.6 36.2c35.6 1.7 141.6 1.7 177.2 0 35.7-1.7 67.3-9.9 93.6-36.2 26.3-26.3 34.5-57.9 36.2-93.6 1.7-35.6 1.7-141.6 0-177.2z"/></svg>